<svg width="15" height="15" viewBox="0 0 15 15" fill="none" xmlns="http://www.w3.org/2000/svg">
<path d="M7.5 0C3.35787 0 0 3.35787 0 7.5C0 11.6421 3.35787 15 7.5 15C11.6421 15 15 11.6421 15 7.5C14.9947 3.36008 11.6399 0.00530888 7.5 0ZM7.82175 14.3404V13.0212C7.82175 12.8435 7.67769 12.6995 7.5 12.6995C7.32231 12.6995 7.17825 12.8435 7.17825 13.0212V14.3404C3.65022 14.172 0.828025 11.3498 0.659588 7.82175H1.97876C2.15645 7.82175 2.30051 7.67769 2.30051 7.5C2.30051 7.32231 2.15645 7.17825 1.97876 7.17825H0.659588C0.828025 3.65022 3.65022 0.828025 7.17825 0.659588V1.97876C7.17825 2.15645 7.32231 2.30051 7.5 2.30051C7.67769 2.30051 7.82175 2.15645 7.82175 1.97876V0.659588C11.3498 0.828025 14.172 3.65022 14.3404 7.17825H13.0212C12.8435 7.17825 12.6995 7.32231 12.6995 7.5C12.6995 7.67769 12.8435 7.82175 13.0212 7.82175H13.0245H14.3436C14.1751 11.3509 11.351 14.1736 7.82175 14.3404Z" fill="#FDFDFD"/>
<path d="M10.8945 10.4923L7.82177 7.36811V4.12165C7.82177 3.94396 7.67771 3.7999 7.50002 3.7999C7.32233 3.7999 7.17827 3.94396 7.17827 4.12165V7.50003C7.17863 7.58445 7.21213 7.66533 7.27158 7.72525L10.4344 10.9428C10.5588 11.0698 10.7626 11.072 10.8897 10.9476C11.0167 10.8232 11.0189 10.6194 10.8945 10.4923Z" fill="#FDFDFD"/>
</svg>
