<svg width="13" height="19" viewBox="0 0 13 19" fill="none" xmlns="http://www.w3.org/2000/svg">
<path d="M11.247 0H1.22589C0.549897 0 0 0.523744 0 1.16754V17.274C0 17.9177 0.549938 18.4415 1.22593 18.4415H11.247C11.923 18.4415 12.473 17.9178 12.473 17.274V1.16754C12.4729 0.523744 11.923 0 11.247 0ZM0.614318 2.9345H11.8586V15.1305H0.614318V2.9345ZM1.22589 0.585058H11.247C11.5842 0.585058 11.8586 0.846345 11.8586 1.16754V2.54446H0.614318V1.16754C0.614318 0.846345 0.888673 0.585058 1.22589 0.585058ZM11.247 17.8564H1.22589C0.888673 17.8564 0.614277 17.5951 0.614277 17.2739V15.5205H11.8586V17.2739C11.8586 17.5951 11.5842 17.8564 11.247 17.8564Z" fill="#FDFDFD"/>
<path d="M6.23646 15.7791C5.68173 15.7791 5.23045 16.2089 5.23045 16.7372C5.23045 17.2656 5.68177 17.6953 6.23646 17.6953C6.79115 17.6953 7.24247 17.2655 7.24247 16.7372C7.24247 16.209 6.79119 15.7791 6.23646 15.7791ZM6.23646 17.3053C5.90755 17.3053 5.64 17.0504 5.64 16.7372C5.64 16.424 5.90755 16.1692 6.23646 16.1692C6.56537 16.1692 6.83292 16.424 6.83292 16.7372C6.83292 17.0504 6.56537 17.3053 6.23646 17.3053Z" fill="#FDFDFD"/>
<path d="M4.84402 1.85833H7.62893C7.74205 1.85833 7.83371 1.771 7.83371 1.66331C7.83371 1.55562 7.74205 1.46829 7.62893 1.46829H4.84402C4.73091 1.46829 4.63925 1.55562 4.63925 1.66331C4.63925 1.771 4.73091 1.85833 4.84402 1.85833Z" fill="#FDFDFD"/>
<path d="M4.10696 1.85833C4.16061 1.85833 4.21345 1.83766 4.25153 1.80139C4.28962 1.76472 4.31174 1.7148 4.31174 1.66331C4.31174 1.61183 4.28962 1.5619 4.25153 1.52524C4.2134 1.48896 4.16057 1.46829 4.10696 1.46829C4.0529 1.46829 4.00044 1.48896 3.96199 1.52524C3.9239 1.56151 3.90219 1.61183 3.90219 1.66331C3.90219 1.7148 3.9239 1.76472 3.96199 1.80139C4.00007 1.83766 4.0529 1.85833 4.10696 1.85833Z" fill="#FDFDFD"/>
</svg>
