<svg width="22" height="26" viewBox="0 0 22 26" fill="none" xmlns="http://www.w3.org/2000/svg">
<path d="M15.5891 15.2538L15.5214 15.2238C15.3597 15.1516 15.1969 15.0835 15.0309 15.0197C14.8498 14.9485 14.6661 14.8826 14.4796 14.8209C14.3324 14.7734 14.1841 14.7291 14.0343 14.6859C13.806 14.621 13.5754 14.5624 13.338 14.5107C13.2574 14.4944 13.1752 14.4786 13.0936 14.4643L13.0377 14.4537C12.8975 14.4268 12.7568 14.4031 12.6144 14.3825L12.5736 14.3761L12.5694 14.3751L12.5286 14.3698C12.4104 14.3524 12.2927 14.3361 12.1702 14.3224L11.7533 14.2887C11.2408 14.2554 10.7126 14.2565 10.2061 14.2929L10.0584 14.305L9.98956 14.3103L9.8171 14.3255C9.65861 14.3418 9.5012 14.3635 9.3438 14.3883L9.29757 14.3946C9.19015 14.412 9.08265 14.4315 8.97682 14.4511C8.8592 14.4717 8.74309 14.4943 8.62706 14.5191C8.40253 14.5687 8.1795 14.6251 7.96358 14.6868C7.79162 14.7353 7.62193 14.7886 7.46235 14.8424L7.35167 14.8815C7.0132 14.9991 6.6769 15.1341 6.3513 15.2823L6.26428 15.3229L6.26269 15.3251C2.45524 17.1141 0 20.9258 0 25.0617C0 25.1567 0.00643679 25.25 0.012372 25.3439L0.0408775 26H21.9581L21.9876 25.3513C21.9941 25.2553 22 25.1598 22 25.0617C22 20.8598 19.4852 17.0144 15.5891 15.2538ZM1.07485 24.9451C1.12108 21.2316 3.35763 17.825 6.76643 16.2559L6.87602 16.2137L6.88889 16.2016C7.15589 16.0819 7.4315 15.9727 7.71087 15.8762L7.79948 15.8451C7.95154 15.7934 8.10301 15.746 8.26042 15.7022C8.45653 15.6457 8.6564 15.5951 8.85678 15.5508C8.96043 15.5292 9.06417 15.5086 9.17109 15.4891C9.25594 15.4738 9.34028 15.458 9.42572 15.4448L9.4676 15.4374C9.62124 15.4137 9.77547 15.392 9.92912 15.3757L10.2805 15.3457C10.7403 15.3124 11.1804 15.3077 11.7133 15.3457L12.0549 15.3736C12.1393 15.3832 12.2236 15.3942 12.3263 15.4084L12.4493 15.4258C12.5777 15.4443 12.7061 15.4659 12.835 15.4897L12.8952 15.5008C12.9678 15.514 13.0397 15.5277 13.1079 15.5419C13.3196 15.5873 13.5275 15.641 13.7338 15.6996C13.8702 15.7387 14.0057 15.7787 14.1378 15.822C14.3054 15.8768 14.4709 15.9365 14.6348 16.0002C14.7922 16.0609 14.9474 16.1258 15.1011 16.1949L15.1279 16.207C18.6141 17.7772 20.878 21.1948 20.9242 24.9442L1.07485 24.9451ZM8.34435 12.9332C8.42493 12.9664 8.50819 12.9954 8.59145 13.0245L8.76608 13.0867C8.8332 13.1119 8.90091 13.1368 8.96971 13.1579C9.61013 13.3557 10.28 13.4574 10.9613 13.4628L11.0155 13.4638C11.2492 13.4638 11.4835 13.4517 11.708 13.429C11.7853 13.4216 11.8606 13.4095 11.9363 13.3969L12.1045 13.3721C12.199 13.3599 12.2936 13.3462 12.3925 13.3273C12.4602 13.3136 12.5257 13.2962 12.5913 13.2788L12.775 13.2329C12.8658 13.2113 12.9566 13.1897 13.0463 13.1622C13.1022 13.1448 13.157 13.1248 13.2113 13.1047L13.359 13.0525C13.4643 13.0167 13.5706 12.9797 13.6771 12.936C13.7184 12.9186 13.7587 12.8996 13.7984 12.8806L13.8462 12.8574C13.9919 12.7935 14.1369 12.7281 14.2809 12.6522L14.3743 12.5974C14.5355 12.5077 14.6961 12.4149 14.8589 12.3057C14.9432 12.2498 15.0238 12.1871 15.1033 12.1249L15.3784 11.9149C16.9601 10.6296 17.8691 8.74353 17.8691 6.78735L17.8724 6.73146C17.8724 3.0195 14.7961 0 11.015 0C7.40584 0 4.40314 2.77051 4.17911 6.30743L4.17318 6.395C4.16457 6.50628 4.15763 6.61756 4.15763 6.73146C4.15654 9.44273 5.8 11.8768 8.34435 12.9332ZM5.24443 6.46812L5.25087 6.37317C5.43996 3.3906 7.97143 1.0547 11.0144 1.0547C14.2035 1.0547 16.7973 3.60109 16.8 6.68329L16.7968 6.73869C16.7946 8.4275 16.0275 10.0177 14.687 11.11L14.4318 11.3009C14.3749 11.3463 14.3174 11.3916 14.2459 11.4402C14.117 11.5262 13.9805 11.6037 13.8419 11.6807L13.7651 11.7266C13.649 11.7878 13.5271 11.8421 13.4003 11.8975L13.2579 11.965C13.1762 11.9982 13.0903 12.0272 13.0054 12.0563L12.8281 12.119C12.7937 12.1317 12.7588 12.1454 12.7249 12.1554C12.6589 12.1754 12.5912 12.1908 12.524 12.2071L12.3096 12.2609C12.2634 12.2731 12.2178 12.2857 12.177 12.2942C12.1055 12.3079 12.0324 12.3174 11.9599 12.3274L11.7558 12.3574C11.7064 12.3659 11.6569 12.3743 11.6016 12.3796C11.4227 12.3981 11.2427 12.4081 11.0601 12.4096L11.0096 12.4091H11.0085C10.4202 12.4086 9.84268 12.3226 9.29038 12.1528C9.24256 12.1381 9.19583 12.1196 9.1491 12.1022L8.94714 12.03C8.88428 12.0083 8.822 11.9872 8.76181 11.9625C6.61713 11.072 5.23097 9.01812 5.23097 6.73179C5.23097 6.64267 5.238 6.55511 5.24443 6.46812Z" fill="#FDFDFD"/>
</svg>
